<mxfile host="app.diagrams.net" agent="Mozilla/5.0 (Windows NT 10.0; Win64; x64) AppleWebKit/537.36 (KHTML, like Gecko) Chrome/138.0.0.0 Safari/537.36" version="28.1.1">
  <diagram name="Page-1" id="oazpZhDo_7Wu9ckxi44m">
    <mxGraphModel dx="1453" dy="1888" grid="1" gridSize="10" guides="1" tooltips="1" connect="1" arrows="1" fold="1" page="1" pageScale="1" pageWidth="850" pageHeight="1100" math="0" shadow="0">
      <root>
        <mxCell id="0" />
        <mxCell id="1" parent="0" />
        <mxCell id="6XI-I_632OhPQ2WG3ZDd-1" value="&lt;font style=&quot;font-size: 19px;&quot;&gt;Start&lt;/font&gt;" style="ellipse;whiteSpace=wrap;html=1;fillColor=#f8cecc;strokeColor=#b85450;" parent="1" vertex="1">
          <mxGeometry x="210.63" y="-80" width="175" height="70" as="geometry" />
        </mxCell>
        <mxCell id="6XI-I_632OhPQ2WG3ZDd-2" value="" style="endArrow=classic;html=1;rounded=0;" parent="1" edge="1">
          <mxGeometry width="50" height="50" relative="1" as="geometry">
            <mxPoint x="300.01" y="-10" as="sourcePoint" />
            <mxPoint x="300.01" y="40" as="targetPoint" />
          </mxGeometry>
        </mxCell>
        <mxCell id="6XI-I_632OhPQ2WG3ZDd-3" value="&lt;font style=&quot;font-size: 19px;&quot;&gt;Login User&lt;/font&gt;" style="rounded=0;whiteSpace=wrap;html=1;fillColor=#f8cecc;strokeColor=#b85450;" parent="1" vertex="1">
          <mxGeometry x="226.89" y="40" width="152.5" height="60" as="geometry" />
        </mxCell>
        <mxCell id="6XI-I_632OhPQ2WG3ZDd-4" value="" style="endArrow=classic;html=1;rounded=0;" parent="1" edge="1">
          <mxGeometry width="50" height="50" relative="1" as="geometry">
            <mxPoint x="302.2" y="100" as="sourcePoint" />
            <mxPoint x="302.2" y="150" as="targetPoint" />
          </mxGeometry>
        </mxCell>
        <mxCell id="6XI-I_632OhPQ2WG3ZDd-5" value="&lt;font style=&quot;font-size: 18px;&quot;&gt;Sudah Register?&lt;/font&gt;" style="rhombus;whiteSpace=wrap;html=1;fillColor=#f8cecc;strokeColor=#b85450;" parent="1" vertex="1">
          <mxGeometry x="216.88" y="150" width="168.75" height="100" as="geometry" />
        </mxCell>
        <mxCell id="6XI-I_632OhPQ2WG3ZDd-6" value="" style="endArrow=classic;html=1;rounded=0;" parent="1" edge="1">
          <mxGeometry width="50" height="50" relative="1" as="geometry">
            <mxPoint x="385.63" y="199.38" as="sourcePoint" />
            <mxPoint x="440" y="200" as="targetPoint" />
          </mxGeometry>
        </mxCell>
        <mxCell id="6XI-I_632OhPQ2WG3ZDd-7" value="&lt;font style=&quot;font-size: 19px;&quot;&gt;Register Akun&lt;/font&gt;" style="shape=parallelogram;perimeter=parallelogramPerimeter;whiteSpace=wrap;html=1;fixedSize=1;fillColor=#f8cecc;strokeColor=#b85450;" parent="1" vertex="1">
          <mxGeometry x="430" y="170" width="160" height="70" as="geometry" />
        </mxCell>
        <mxCell id="6XI-I_632OhPQ2WG3ZDd-8" value="&lt;font style=&quot;font-size: 19px;&quot;&gt;Tidak&lt;/font&gt;" style="text;html=1;align=center;verticalAlign=middle;whiteSpace=wrap;rounded=0;" parent="1" vertex="1">
          <mxGeometry x="379.39" y="170" width="60" height="30" as="geometry" />
        </mxCell>
        <mxCell id="6XI-I_632OhPQ2WG3ZDd-10" value="&lt;font style=&quot;font-size: 19px;&quot;&gt;Notif user baru registrasi ke admin&lt;/font&gt;" style="shape=parallelogram;perimeter=parallelogramPerimeter;whiteSpace=wrap;html=1;fixedSize=1;fillColor=#f8cecc;strokeColor=#b85450;" parent="1" vertex="1">
          <mxGeometry x="630" y="167.5" width="200" height="75" as="geometry" />
        </mxCell>
        <mxCell id="6XI-I_632OhPQ2WG3ZDd-11" value="" style="endArrow=classic;html=1;rounded=0;" parent="1" edge="1">
          <mxGeometry width="50" height="50" relative="1" as="geometry">
            <mxPoint x="302.56" y="250" as="sourcePoint" />
            <mxPoint x="302.52" y="300" as="targetPoint" />
          </mxGeometry>
        </mxCell>
        <mxCell id="6XI-I_632OhPQ2WG3ZDd-12" value="&lt;font style=&quot;font-size: 19px;&quot;&gt;Ya&lt;/font&gt;" style="text;html=1;align=center;verticalAlign=middle;whiteSpace=wrap;rounded=0;" parent="1" vertex="1">
          <mxGeometry x="300" y="260" width="60" height="30" as="geometry" />
        </mxCell>
        <mxCell id="6XI-I_632OhPQ2WG3ZDd-13" value="&lt;font style=&quot;font-size: 18px;&quot;&gt;User Guru/Admin&lt;/font&gt;" style="rhombus;whiteSpace=wrap;html=1;fillColor=#f8cecc;strokeColor=#b85450;" parent="1" vertex="1">
          <mxGeometry x="210.63" y="440" width="179.37" height="110" as="geometry" />
        </mxCell>
        <mxCell id="6XI-I_632OhPQ2WG3ZDd-15" value="" style="endArrow=classic;html=1;rounded=0;exitX=0;exitY=0.5;exitDx=0;exitDy=0;" parent="1" source="6XI-I_632OhPQ2WG3ZDd-13" edge="1">
          <mxGeometry width="50" height="50" relative="1" as="geometry">
            <mxPoint x="200" y="490" as="sourcePoint" />
            <mxPoint x="120" y="560" as="targetPoint" />
            <Array as="points">
              <mxPoint x="120" y="495" />
            </Array>
          </mxGeometry>
        </mxCell>
        <mxCell id="6XI-I_632OhPQ2WG3ZDd-16" value="&lt;font style=&quot;font-size: 17px; color: rgb(0, 0, 0);&quot;&gt;User Guru/Admin&lt;/font&gt;" style="rhombus;whiteSpace=wrap;html=1;fillColor=#60a917;strokeColor=#2D7600;fontColor=#ffffff;" parent="1" vertex="1">
          <mxGeometry x="40" y="560" width="160" height="110" as="geometry" />
        </mxCell>
        <mxCell id="6XI-I_632OhPQ2WG3ZDd-17" value="" style="endArrow=classic;html=1;rounded=0;" parent="1" edge="1">
          <mxGeometry width="50" height="50" relative="1" as="geometry">
            <mxPoint x="119.45000000000002" y="670" as="sourcePoint" />
            <mxPoint x="120" y="710" as="targetPoint" />
          </mxGeometry>
        </mxCell>
        <mxCell id="6XI-I_632OhPQ2WG3ZDd-19" value="" style="endArrow=classic;html=1;rounded=0;" parent="1" edge="1">
          <mxGeometry width="50" height="50" relative="1" as="geometry">
            <mxPoint x="119.41000000000003" y="760" as="sourcePoint" />
            <mxPoint x="120" y="790" as="targetPoint" />
          </mxGeometry>
        </mxCell>
        <mxCell id="6XI-I_632OhPQ2WG3ZDd-21" value="" style="endArrow=classic;html=1;rounded=0;" parent="1" edge="1">
          <mxGeometry width="50" height="50" relative="1" as="geometry">
            <mxPoint x="119.41000000000003" y="840" as="sourcePoint" />
            <mxPoint x="120" y="870" as="targetPoint" />
          </mxGeometry>
        </mxCell>
        <mxCell id="6XI-I_632OhPQ2WG3ZDd-22" value="&lt;div&gt;&lt;span style=&quot;font-size: 18px; background-color: transparent;&quot;&gt;&lt;font style=&quot;color: light-dark(rgb(0, 0, 0), rgb(18, 18, 18));&quot;&gt;Pilih Kelas&lt;/font&gt;&lt;/span&gt;&lt;/div&gt;" style="shape=parallelogram;perimeter=parallelogramPerimeter;whiteSpace=wrap;html=1;fixedSize=1;fillColor=#60a917;fontColor=#ffffff;strokeColor=#2D7600;" parent="1" vertex="1">
          <mxGeometry x="20" y="870" width="194.37" height="50" as="geometry" />
        </mxCell>
        <mxCell id="6XI-I_632OhPQ2WG3ZDd-23" value="" style="endArrow=classic;html=1;rounded=0;" parent="1" edge="1">
          <mxGeometry width="50" height="50" relative="1" as="geometry">
            <mxPoint x="116.91000000000003" y="920" as="sourcePoint" />
            <mxPoint x="117.5" y="950" as="targetPoint" />
          </mxGeometry>
        </mxCell>
        <mxCell id="6XI-I_632OhPQ2WG3ZDd-25" value="&lt;div&gt;&lt;span style=&quot;font-size: 18px; background-color: transparent;&quot;&gt;&lt;font style=&quot;color: light-dark(rgb(0, 0, 0), rgb(18, 18, 18));&quot;&gt;Isi Data Absensi&lt;/font&gt;&lt;/span&gt;&lt;/div&gt;" style="shape=parallelogram;perimeter=parallelogramPerimeter;whiteSpace=wrap;html=1;fixedSize=1;fillColor=#60a917;fontColor=#ffffff;strokeColor=#2D7600;" parent="1" vertex="1">
          <mxGeometry x="20" y="950" width="194.37" height="50" as="geometry" />
        </mxCell>
        <mxCell id="6XI-I_632OhPQ2WG3ZDd-26" value="&lt;div&gt;&lt;span style=&quot;font-size: 18px; background-color: transparent;&quot;&gt;&lt;font style=&quot;color: light-dark(rgb(0, 0, 0), rgb(18, 18, 18));&quot;&gt;Pilih Tanggal Absensi&lt;/font&gt;&lt;/span&gt;&lt;/div&gt;" style="shape=parallelogram;perimeter=parallelogramPerimeter;whiteSpace=wrap;html=1;fixedSize=1;fillColor=#60a917;fontColor=#ffffff;strokeColor=#2D7600;" parent="1" vertex="1">
          <mxGeometry x="20" y="790" width="195" height="50" as="geometry" />
        </mxCell>
        <mxCell id="6XI-I_632OhPQ2WG3ZDd-27" value="&lt;div&gt;&lt;span style=&quot;font-size: 18px; background-color: transparent;&quot;&gt;&lt;font style=&quot;color: light-dark(rgb(0, 0, 0), rgb(18, 18, 18));&quot;&gt;Buka Menu Absensi&lt;/font&gt;&lt;/span&gt;&lt;/div&gt;" style="shape=parallelogram;perimeter=parallelogramPerimeter;whiteSpace=wrap;html=1;fixedSize=1;fillColor=#60a917;fontColor=#ffffff;strokeColor=#2D7600;" parent="1" vertex="1">
          <mxGeometry x="25" y="710" width="195" height="50" as="geometry" />
        </mxCell>
        <mxCell id="6XI-I_632OhPQ2WG3ZDd-28" value="" style="endArrow=classic;html=1;rounded=0;" parent="1" edge="1">
          <mxGeometry width="50" height="50" relative="1" as="geometry">
            <mxPoint x="121.91000000000003" y="1000" as="sourcePoint" />
            <mxPoint x="122.5" y="1030" as="targetPoint" />
          </mxGeometry>
        </mxCell>
        <mxCell id="6XI-I_632OhPQ2WG3ZDd-29" value="&lt;div&gt;&lt;span style=&quot;font-size: 18px; background-color: transparent;&quot;&gt;&lt;font style=&quot;color: light-dark(rgb(0, 0, 0), rgb(18, 18, 18));&quot;&gt;Simpan Data Absensi&lt;/font&gt;&lt;/span&gt;&lt;/div&gt;" style="shape=parallelogram;perimeter=parallelogramPerimeter;whiteSpace=wrap;html=1;fixedSize=1;fillColor=#60a917;fontColor=#ffffff;strokeColor=#2D7600;" parent="1" vertex="1">
          <mxGeometry x="20" y="1030" width="194.37" height="50" as="geometry" />
        </mxCell>
        <mxCell id="6XI-I_632OhPQ2WG3ZDd-30" value="" style="endArrow=classic;html=1;rounded=0;" parent="1" edge="1">
          <mxGeometry width="50" height="50" relative="1" as="geometry">
            <mxPoint x="119.41000000000003" y="1080" as="sourcePoint" />
            <mxPoint x="120" y="1110" as="targetPoint" />
          </mxGeometry>
        </mxCell>
        <mxCell id="6XI-I_632OhPQ2WG3ZDd-31" value="&lt;font color=&quot;#000000&quot;&gt;&lt;span style=&quot;font-size: 18px;&quot;&gt;Tampilkan Status Kehadiran&lt;/span&gt;&lt;/font&gt;" style="shape=parallelogram;perimeter=parallelogramPerimeter;whiteSpace=wrap;html=1;fixedSize=1;fillColor=#60a917;fontColor=#ffffff;strokeColor=#2D7600;" parent="1" vertex="1">
          <mxGeometry x="21.880000000000003" y="1110" width="194.37" height="50" as="geometry" />
        </mxCell>
        <mxCell id="6XI-I_632OhPQ2WG3ZDd-32" value="" style="endArrow=classic;html=1;rounded=0;" parent="1" edge="1">
          <mxGeometry width="50" height="50" relative="1" as="geometry">
            <mxPoint x="121.91000000000003" y="1160" as="sourcePoint" />
            <mxPoint x="122.5" y="1190" as="targetPoint" />
          </mxGeometry>
        </mxCell>
        <mxCell id="6XI-I_632OhPQ2WG3ZDd-33" value="&lt;font style=&quot;font-size: 19px;&quot;&gt;End&lt;/font&gt;" style="ellipse;whiteSpace=wrap;html=1;fillColor=#f8cecc;strokeColor=#b85450;" parent="1" vertex="1">
          <mxGeometry x="49" y="1190" width="151" height="90" as="geometry" />
        </mxCell>
        <mxCell id="6XI-I_632OhPQ2WG3ZDd-34" value="" style="endArrow=classic;html=1;rounded=0;entryX=0.5;entryY=0;entryDx=0;entryDy=0;" parent="1" edge="1">
          <mxGeometry width="50" height="50" relative="1" as="geometry">
            <mxPoint x="720.41" y="242.5" as="sourcePoint" />
            <mxPoint x="719.9999999999998" y="470" as="targetPoint" />
          </mxGeometry>
        </mxCell>
        <mxCell id="6XI-I_632OhPQ2WG3ZDd-36" value="&lt;font style=&quot;font-size: 18px;&quot;&gt;Admin?&lt;/font&gt;" style="rhombus;whiteSpace=wrap;html=1;fillColor=#f8cecc;strokeColor=#b85450;" parent="1" vertex="1">
          <mxGeometry x="420" y="300" width="140" height="100" as="geometry" />
        </mxCell>
        <mxCell id="6XI-I_632OhPQ2WG3ZDd-44" value="&lt;font color=&quot;#000000&quot;&gt;&lt;span style=&quot;font-size: 19px;&quot;&gt;Mengelola Data Absensi&lt;/span&gt;&lt;/font&gt;" style="shape=parallelogram;perimeter=parallelogramPerimeter;whiteSpace=wrap;html=1;fixedSize=1;fillColor=#1ba1e2;strokeColor=#006EAF;fontColor=#ffffff;" parent="1" vertex="1">
          <mxGeometry x="400" y="470" width="180" height="70" as="geometry" />
        </mxCell>
        <mxCell id="LtNeHDzt3exDOdAP9zjK-2" value="&lt;font style=&quot;font-size: 18px;&quot;&gt;Check Role&lt;/font&gt;" style="rhombus;whiteSpace=wrap;html=1;fillColor=#f8cecc;strokeColor=#b85450;" vertex="1" parent="1">
          <mxGeometry x="216.88" y="300" width="168.75" height="100" as="geometry" />
        </mxCell>
        <mxCell id="LtNeHDzt3exDOdAP9zjK-3" value="" style="endArrow=classic;html=1;rounded=0;entryX=0.5;entryY=0;entryDx=0;entryDy=0;" edge="1" parent="1" target="6XI-I_632OhPQ2WG3ZDd-13">
          <mxGeometry width="50" height="50" relative="1" as="geometry">
            <mxPoint x="299.73" y="400" as="sourcePoint" />
            <mxPoint x="300" y="430" as="targetPoint" />
          </mxGeometry>
        </mxCell>
        <mxCell id="LtNeHDzt3exDOdAP9zjK-7" value="" style="endArrow=classic;html=1;rounded=0;entryX=0.05;entryY=0.433;entryDx=0;entryDy=0;entryPerimeter=0;" edge="1" parent="1" target="6XI-I_632OhPQ2WG3ZDd-10">
          <mxGeometry width="50" height="50" relative="1" as="geometry">
            <mxPoint x="580" y="199.38" as="sourcePoint" />
            <mxPoint x="634.37" y="200" as="targetPoint" />
          </mxGeometry>
        </mxCell>
        <mxCell id="LtNeHDzt3exDOdAP9zjK-8" value="" style="endArrow=classic;html=1;rounded=0;" edge="1" parent="1">
          <mxGeometry width="50" height="50" relative="1" as="geometry">
            <mxPoint x="385.63" y="349.38" as="sourcePoint" />
            <mxPoint x="420" y="350" as="targetPoint" />
          </mxGeometry>
        </mxCell>
        <mxCell id="LtNeHDzt3exDOdAP9zjK-9" value="" style="endArrow=classic;html=1;rounded=0;" edge="1" parent="1">
          <mxGeometry width="50" height="50" relative="1" as="geometry">
            <mxPoint x="489.78" y="400" as="sourcePoint" />
            <mxPoint x="489" y="470" as="targetPoint" />
          </mxGeometry>
        </mxCell>
        <mxCell id="LtNeHDzt3exDOdAP9zjK-10" value="" style="endArrow=none;html=1;rounded=0;" edge="1" parent="1">
          <mxGeometry width="50" height="50" relative="1" as="geometry">
            <mxPoint x="560" y="350" as="sourcePoint" />
            <mxPoint x="720" y="350" as="targetPoint" />
          </mxGeometry>
        </mxCell>
        <mxCell id="LtNeHDzt3exDOdAP9zjK-21" style="edgeStyle=orthogonalEdgeStyle;rounded=0;orthogonalLoop=1;jettySize=auto;html=1;entryX=1;entryY=0.5;entryDx=0;entryDy=0;" edge="1" parent="1" source="LtNeHDzt3exDOdAP9zjK-12" target="6XI-I_632OhPQ2WG3ZDd-3">
          <mxGeometry relative="1" as="geometry">
            <Array as="points">
              <mxPoint x="610" y="535" />
              <mxPoint x="610" y="70" />
            </Array>
          </mxGeometry>
        </mxCell>
        <mxCell id="LtNeHDzt3exDOdAP9zjK-12" value="&lt;font style=&quot;color: rgb(0, 0, 0);&quot;&gt;&lt;br&gt;&lt;/font&gt;&lt;div&gt;&lt;span style=&quot;font-size: 18px;&quot;&gt;&lt;font style=&quot;color: rgb(0, 0, 0);&quot;&gt;Menyetujui user yang baru register&lt;/font&gt;&lt;/span&gt;&lt;/div&gt;" style="rhombus;whiteSpace=wrap;html=1;fillColor=#1ba1e2;strokeColor=#006EAF;fontColor=#ffffff;" vertex="1" parent="1">
          <mxGeometry x="620" y="470" width="200" height="130" as="geometry" />
        </mxCell>
        <mxCell id="LtNeHDzt3exDOdAP9zjK-14" value="" style="endArrow=classic;html=1;rounded=0;" edge="1" parent="1">
          <mxGeometry width="50" height="50" relative="1" as="geometry">
            <mxPoint x="720.0699999999999" y="600" as="sourcePoint" />
            <mxPoint x="719" y="640" as="targetPoint" />
          </mxGeometry>
        </mxCell>
        <mxCell id="LtNeHDzt3exDOdAP9zjK-15" value="&lt;font style=&quot;font-size: 17px; color: rgb(0, 0, 0);&quot;&gt;User tidak bisa login&lt;/font&gt;" style="rounded=0;whiteSpace=wrap;html=1;fillColor=#1ba1e2;fontColor=#ffffff;strokeColor=#006EAF;" vertex="1" parent="1">
          <mxGeometry x="630" y="640" width="180" height="90" as="geometry" />
        </mxCell>
        <mxCell id="LtNeHDzt3exDOdAP9zjK-16" value="&lt;font style=&quot;font-size: 19px;&quot;&gt;Tidak&lt;/font&gt;" style="text;html=1;align=center;verticalAlign=middle;whiteSpace=wrap;rounded=0;" vertex="1" parent="1">
          <mxGeometry x="720" y="600" width="60" height="30" as="geometry" />
        </mxCell>
        <mxCell id="LtNeHDzt3exDOdAP9zjK-22" value="&lt;font style=&quot;font-size: 19px;&quot;&gt;Ya&lt;/font&gt;" style="text;html=1;align=center;verticalAlign=middle;whiteSpace=wrap;rounded=0;" vertex="1" parent="1">
          <mxGeometry x="600" y="480" width="60" height="30" as="geometry" />
        </mxCell>
      </root>
    </mxGraphModel>
  </diagram>
</mxfile>
